# xmcd
#
# Track frame offsets: 
#        182
#        12615
#        24132
#        34420
#        48420
#        57327
#        70730
#        87212
#        102005
#        115157
#        133960
#        152365
#        162325
#        171182
#
# Disc length: 2430 seconds
#
# Revision: 3
# Processed by: cddbd v1.5.2PL0 Copyright (c) Steve Scherf et al.
# Submitted via: ExactAudioCopy v0.99pb3
#
DISCID=b1097c0e
DTITLE=João Bosco - Acervo Especial
DYEAR=1993
DGENRE=Latin
TTITLE0=Dois Pra Lá, Dois Pra Cá
TTITLE1=Incompatibilidade De Gênios
TTITLE2=Galos De Briga
TTITLE3=O Mestre Sala Dos Mares
TTITLE4=Bijouterias
TTITLE5=Kid Cavaquinho
TTITLE6=Trilha Sonora
TTITLE7=O Bêbado E A Equilibrista
TTITLE8=Caça A Raposa
TTITLE9=O Rancho Da Goiabada
TTITLE10=O Ronco Da Cuíca
TTITLE11=De Frente Pro Crime
TTITLE12=Latin Lover
TTITLE13=Falso Brilhante
EXTD=
EXTT0=
EXTT1=
EXTT2=
EXTT3=
EXTT4=
EXTT5=
EXTT6=
EXTT7=
EXTT8=
EXTT9=
EXTT10=
EXTT11=
EXTT12=
EXTT13=
PLAYORDER=
